<svg width="32" height="31" viewBox="0 0 32 31" fill="none" xmlns="http://www.w3.org/2000/svg">
<path d="M29.9411 12.2595C29.5668 11.9566 28.944 11.4515 28.866 11.2121C28.7867 10.9635 28.9916 10.1635 29.1146 9.68745C29.4095 8.53833 29.7771 7.10883 28.9533 5.98352C28.1334 4.86614 26.659 4.76827 25.4742 4.68889C24.9836 4.65452 24.1611 4.60027 23.9534 4.44952C23.7432 4.29746 23.4271 3.51858 23.2381 3.05177C22.7712 1.89471 22.2397 0.582894 20.9424 0.165019C19.6518 -0.256793 18.4722 0.490332 17.4342 1.14752C16.9766 1.43577 16.2877 1.87221 15.9994 1.87221C15.7231 1.87221 15.0421 1.42921 14.5898 1.13564C13.5914 0.486332 12.3431 -0.317668 11.0274 0.129332C9.73275 0.569707 9.2065 1.87352 8.73969 3.02133C8.55194 3.48414 8.23981 4.25639 8.02563 4.41377C7.81669 4.56846 6.97963 4.62402 6.47975 4.65708C5.23013 4.74171 3.81387 4.83696 3.01781 5.96358C2.23631 7.07039 2.58669 8.43508 2.89613 9.63977C3.01781 10.1185 3.22406 10.9198 3.15 11.1591C3.07069 11.3879 2.45444 11.8944 2.08681 12.1972C1.15706 12.9643 0 13.9177 0 15.3459C0 16.7648 1.13462 17.7076 2.04569 18.464C2.44106 18.792 3.03744 19.2878 3.11812 19.5338C3.19744 19.7771 2.99119 20.5679 2.86687 21.04C2.56537 22.1997 2.1885 23.6438 3.04406 24.7783C3.8785 25.8812 5.34631 25.979 6.52719 26.0584C7.01781 26.0928 7.839 26.1456 8.04794 26.2978C8.25688 26.4499 8.57163 27.2274 8.76069 27.6942C9.22881 28.8513 9.75906 30.1631 11.0576 30.5823C11.3181 30.6682 11.576 30.7053 11.8272 30.7053C12.8217 30.7053 13.7394 30.1234 14.5672 29.6024C15.0234 29.3141 15.7111 28.8777 15.9993 28.8777C16.281 28.8777 16.958 29.3088 17.405 29.5944C18.3968 30.2252 19.6345 31.016 20.9476 30.5664C22.2409 30.126 22.7672 28.8235 23.234 27.6731C23.4217 27.2116 23.7339 26.438 23.9481 26.2806C24.1583 26.1259 24.9901 26.0704 25.4873 26.0373C26.7277 25.9527 28.1347 25.8588 28.9427 24.7493C29.7559 23.6346 29.4068 22.2553 29.0987 21.0401C28.9784 20.5653 28.7774 19.7733 28.8501 19.5352C28.9294 19.3065 29.5457 18.8 29.912 18.4971C30.8429 17.7301 32 16.7754 32 15.3472C32 13.931 30.8575 13.004 29.9411 12.2595ZM28.2313 16.458C27.4577 17.0941 26.6576 17.754 26.3429 18.6995C26.0216 19.6621 26.2834 20.6936 26.5359 21.6906C26.6589 22.1773 26.8652 22.9905 26.8374 23.1585C26.6364 23.3092 25.8073 23.3661 25.3114 23.3978C24.3289 23.464 23.2155 23.538 22.3864 24.1463C21.5652 24.7479 21.1671 25.7304 20.7823 26.68C20.5946 27.1481 20.2772 27.9322 20.1462 28.0513C19.9056 28.0513 19.2325 27.6188 18.8292 27.3623C17.9974 26.8334 17.0546 26.2317 16.0006 26.2317C14.9454 26.2317 13.9946 26.8347 13.1536 27.3663C12.7463 27.6229 12.0639 28.0566 11.9185 28.0883C11.7136 27.9415 11.4014 27.1666 11.2137 26.7038C10.8249 25.7424 10.4229 24.7494 9.59381 24.153C8.77 23.5592 7.72 23.4891 6.70312 23.4217C6.22575 23.39 5.33581 23.3305 5.17444 23.2207C5.09244 22.9866 5.30006 22.1866 5.42569 21.7106C5.67031 20.7677 5.94938 19.6993 5.63462 18.7233C5.31856 17.7488 4.47888 17.0492 3.737 16.433C3.37469 16.1315 2.69894 15.5695 2.64206 15.3658C2.70156 15.1172 3.39581 14.5446 3.76869 14.2392C4.54225 13.6018 5.34231 12.942 5.65706 11.9965C5.98106 11.0271 5.71394 9.98777 5.45738 8.98277C5.33306 8.49745 5.12413 7.68552 5.14 7.53083C5.34231 7.38539 6.16481 7.32983 6.65675 7.29677C7.6895 7.22802 8.75931 7.15527 9.58844 6.54833C10.4096 5.94664 10.8077 4.96546 11.1925 4.01602C11.3802 3.54658 11.699 2.76371 11.8206 2.64602C12.0653 2.64996 12.7449 3.09164 13.1509 3.35483C13.9893 3.89964 14.9414 4.51721 16.0006 4.51721C17.0546 4.51721 18.008 3.91421 18.8464 3.38396C19.2537 3.12608 19.936 2.69371 20.0815 2.66196C20.2851 2.80877 20.5986 3.58364 20.7863 4.04646C21.1751 5.00652 21.5771 5.99958 22.4062 6.59595C23.23 7.19102 24.2813 7.26108 25.2996 7.32852C25.8021 7.36289 26.6444 7.41977 26.8018 7.51495C26.8824 7.7477 26.6774 8.5517 26.5531 9.03039C26.3111 9.9772 26.0361 11.0496 26.3521 12.0282C26.6708 13.0134 27.5238 13.705 28.2762 14.3146C28.62 14.5949 29.2534 15.1067 29.3512 15.3526C29.2574 15.6104 28.5923 16.1591 28.2313 16.458Z" fill="#FF0000"/>
<path d="M21.9132 10.3645C21.3498 9.89373 20.518 9.97042 20.0513 10.5298L14.1548 17.5794L11.6463 15.0722C11.1292 14.5551 10.2935 14.5551 9.77647 15.0722C9.25941 15.5892 9.25941 16.425 9.77647 16.942L13.3072 20.4727C13.5545 20.7227 13.8917 20.8602 14.2422 20.8602C14.2607 20.8602 14.2805 20.8602 14.299 20.8575C14.6719 20.8417 15.0171 20.6698 15.2551 20.3855L22.0784 12.2264C22.5465 11.6657 22.4738 10.8326 21.9132 10.3645Z" fill="#FF0000"/>
</svg>
