<svg width="27" height="32" viewBox="0 0 27 32" fill="none" xmlns="http://www.w3.org/2000/svg">
<path d="M23.1273 10.1818C22.8363 9.30909 21.9636 8.72727 21.0909 8.72727H18.9091H4.36364V5.81818L0 10.1818L2.90909 13.0909L4.36364 14.5455V11.6364H21.3818L23.2727 17.4545H0V30.5455C0 31.4182 0.581818 32 1.45455 32H2.90909C3.78182 32 4.36364 31.4182 4.36364 30.5455V29.0909H21.8182V30.5455C21.8182 31.4182 22.4 32 23.2727 32H24.7273C25.6 32 26.1818 31.4182 26.1818 30.5455V18.9091L23.1273 10.1818ZM5.09091 24.7273C3.92727 24.7273 2.90909 23.7091 2.90909 22.5455C2.90909 21.3818 3.92727 20.3636 5.09091 20.3636C6.25455 20.3636 7.27273 21.3818 7.27273 22.5455C7.27273 23.7091 6.25455 24.7273 5.09091 24.7273ZM21.0909 24.7273C19.9273 24.7273 18.9091 23.7091 18.9091 22.5455C18.9091 21.3818 19.9273 20.3636 21.0909 20.3636C22.2545 20.3636 23.2727 21.3818 23.2727 22.5455C23.2727 23.7091 22.2545 24.7273 21.0909 24.7273ZM18.9091 0V2.90909H7.27273V5.81818H18.9091V8.72727L23.2727 4.36364L18.9091 0Z" fill="#FF0000"/>
</svg>
