<svg width="32" height="26" viewBox="0 0 32 26" fill="none" xmlns="http://www.w3.org/2000/svg">
<path d="M30.4037 24.6196H9.00542C8.12349 24.6196 7.40869 23.9048 7.40869 23.0229C7.40869 22.141 8.12349 21.4262 9.00542 21.4262H30.4032C31.2851 21.4262 31.9999 22.141 31.9999 23.0229C31.9999 23.9048 31.2856 24.6196 30.4037 24.6196Z" fill="#DC1616"/>
<path d="M30.4037 14.597H9.00542C8.12349 14.597 7.40869 13.8822 7.40869 13.0003C7.40869 12.1184 8.12349 11.4036 9.00542 11.4036H30.4032C31.2851 11.4036 31.9999 12.1184 31.9999 13.0003C32.0004 13.8822 31.2856 14.597 30.4037 14.597Z" fill="#DC1616"/>
<path d="M30.4037 4.57434H9.00542C8.12349 4.57434 7.40869 3.85954 7.40869 2.97762C7.40869 2.09569 8.12349 1.38089 9.00542 1.38089H30.4032C31.2851 1.38089 31.9999 2.09569 31.9999 2.97762C31.9999 3.85954 31.2856 4.57434 30.4037 4.57434Z" fill="#DC1616"/>
<path d="M2.1444 5.2455C3.32873 5.2455 4.28881 4.28542 4.28881 3.1011C4.28881 1.91678 3.32873 0.956696 2.1444 0.956696C0.960082 0.956696 0 1.91678 0 3.1011C0 4.28542 0.960082 5.2455 2.1444 5.2455Z" fill="#DC1616"/>
<path d="M2.1444 15.1447C3.32873 15.1447 4.28881 14.1846 4.28881 13.0003C4.28881 11.8159 3.32873 10.8559 2.1444 10.8559C0.960082 10.8559 0 11.8159 0 13.0003C0 14.1846 0.960082 15.1447 2.1444 15.1447Z" fill="#DC1616"/>
<path d="M2.1444 25.0438C3.32873 25.0438 4.28881 24.0838 4.28881 22.8994C4.28881 21.7151 3.32873 20.755 2.1444 20.755C0.960082 20.755 0 21.7151 0 22.8994C0 24.0838 0.960082 25.0438 2.1444 25.0438Z" fill="#DC1616"/>
</svg>
