<svg width="22" height="22" viewBox="0 0 22 22" fill="none" xmlns="http://www.w3.org/2000/svg">
<path d="M21.3868 17.4804L16.3022 13.1665C16.1812 13.0656 16.033 13.0111 15.8825 13.0111C15.6723 13.0111 15.472 13.117 15.3471 13.2945C14.7684 14.1151 14.0589 14.8251 13.2381 15.4043C13.0854 15.5121 12.9842 15.6769 12.9606 15.8566C12.937 16.0365 12.9895 16.2143 13.1087 16.3573L17.4253 21.4464C17.7178 21.7974 18.1425 22 18.5887 22C18.9899 22 19.3718 21.8389 19.6645 21.5463L21.4891 19.7216C21.8001 19.4106 21.9606 19.0048 21.9413 18.5786C21.9218 18.1522 21.7249 17.7622 21.3868 17.4804Z" fill="#DC1616"/>
<path d="M8.13616 16.1582C10.294 16.1582 12.3228 15.3179 13.8488 13.7919C15.3749 12.2658 16.2153 10.2371 16.2153 8.07914C16.2153 3.62435 12.591 0 8.13616 0C3.68125 0 0.0571289 3.62435 0.0571289 8.07914C0.0571289 12.5339 3.68136 16.1582 8.13616 16.1582ZM2.67527 8.07914C2.67527 5.06798 5.12499 2.61825 8.13616 2.61825C11.1474 2.61825 13.597 5.06798 13.597 8.07914C13.597 9.5354 13.0284 10.9061 11.9958 11.9386C10.9631 12.9712 9.59241 13.5399 8.13616 13.5399C5.12499 13.54 2.67527 11.0903 2.67527 8.07914Z" fill="#DC1616"/>
</svg>
