<svg width="32" height="32" viewBox="0 0 32 32" fill="none" xmlns="http://www.w3.org/2000/svg">
<path d="M30.5389 20.7905C29.6378 20.3082 28.5497 20.3608 27.6993 20.9277L23.2355 23.9035C23.0928 22.4855 21.8924 21.3749 20.4374 21.3749H15.7499L15.1384 20.9162C13.9206 20.0029 12.4116 19.4999 10.8893 19.4999C9.60606 19.4999 8.34614 19.8489 7.24571 20.5091L6.99989 20.6566V19.8124C6.99989 19.2946 6.58015 18.8749 6.0624 18.8749H0.937494C0.419747 18.8749 0 19.2946 0 19.8124V31.0623C0 31.5801 0.419747 31.9998 0.937494 31.9998H6.06246C6.58021 31.9998 6.99996 31.5801 6.99996 31.0623V30.7498H21.766C22.7239 30.7498 23.6466 30.4616 24.4341 29.9163L30.8081 25.5035C31.5543 24.987 31.9998 24.1369 31.9998 23.2292C31.9998 22.2072 31.4401 21.2727 30.5389 20.7905ZM5.12497 30.1248H1.87499V20.7499H5.12497V30.1248ZM29.7409 23.9619L23.3668 28.3747C22.8942 28.7019 22.3407 28.8748 21.766 28.8748H6.99996V22.8432L8.21045 22.1169C9.01951 21.6315 9.94581 21.3749 10.8893 21.3749C12.0085 21.3749 13.118 21.7447 14.0134 22.4162L14.8749 23.0624C15.0372 23.184 15.2346 23.2499 15.4374 23.2499H20.4374C20.9543 23.2499 21.3749 23.6704 21.3749 24.1874C21.3749 24.7043 20.9543 25.1248 20.4374 25.1248H13.5624C13.0447 25.1248 12.6249 25.5446 12.6249 26.0623C12.6249 26.5801 13.0447 26.9998 13.5624 26.9998H20.9304C21.6112 26.9998 22.2705 26.8003 22.8372 26.4225L28.7394 22.4878C29.1401 22.2206 29.5126 22.3678 29.6543 22.4436C29.7958 22.5193 30.1249 22.7475 30.1249 23.2292C30.1248 23.5216 29.9813 23.7955 29.7409 23.9619Z" fill="#FF0000"/>
<path d="M14.1875 15.6249C18.0587 15.6249 21.2808 12.7943 21.8942 9.09422C22.6795 9.97434 23.3144 10.984 23.7625 12.073H22.9374C22.5736 12.073 22.2427 12.2834 22.0884 12.6128C21.9341 12.9423 21.9843 13.3312 22.2172 13.6106L26.2797 18.4856C26.4578 18.6994 26.7216 18.8229 26.9999 18.8229C27.2781 18.8229 27.542 18.6993 27.7201 18.4856L31.7825 13.6106C32.0154 13.3312 32.0656 12.9423 31.9113 12.6128C31.7571 12.2834 31.4261 12.073 31.0623 12.073H29.6977C28.8692 8.80048 27.0011 5.83899 24.3816 3.6697C21.5242 1.30327 17.9039 3.05176e-05 14.1875 3.05176e-05C9.87966 3.05176e-05 6.375 3.5047 6.375 7.81248C6.375 12.1203 9.87966 15.6249 14.1875 15.6249ZM20.6744 3.45382C21.5642 3.91351 22.4071 4.46888 23.1858 5.11381C25.6751 7.1753 27.3957 10.0455 28.0307 13.1958C28.1189 13.6333 28.5034 13.948 28.9497 13.948H29.0608L26.9999 16.421L24.9389 13.9479H25.0714C25.3638 13.9479 25.6395 13.8115 25.8168 13.5791C25.9942 13.3466 26.0529 13.0447 25.9756 12.7627C25.3056 10.3172 23.8612 8.10829 21.8899 6.5023C21.8897 6.50218 21.8895 6.50199 21.8893 6.50186C21.7009 5.39118 21.2777 4.35944 20.672 3.46001C20.6729 3.45788 20.6736 3.45588 20.6744 3.45382ZM14.1875 1.87502C17.4614 1.87502 20.1249 4.53856 20.1249 7.81248C20.1249 11.0864 17.4614 13.7499 14.1875 13.7499C10.9135 13.7499 8.24999 11.0864 8.24999 7.81248C8.24999 4.53856 10.9135 1.87502 14.1875 1.87502Z" fill="#FF0000"/>
<path d="M14.187 8.74996C14.5316 8.74996 14.812 9.03034 14.812 9.37496C14.812 9.71958 14.5316 9.99996 14.187 9.99996C13.891 9.99996 13.6335 9.79008 13.5747 9.5009C13.4718 8.99352 12.9769 8.66584 12.4694 8.76871C11.9619 8.87178 11.6342 9.36665 11.7372 9.87408C11.9073 10.7113 12.4919 11.3826 13.2494 11.6911V11.8749C13.2494 12.3927 13.6692 12.8124 14.1869 12.8124C14.7047 12.8124 15.1244 12.3927 15.1244 11.8749V11.6919C16.0396 11.3202 16.6869 10.422 16.6869 9.37496C16.6869 7.99647 15.5654 6.87497 14.1869 6.87497C13.8423 6.87497 13.5619 6.5946 13.5619 6.24998C13.5619 5.90536 13.8423 5.62498 14.1869 5.62498C14.4829 5.62498 14.7404 5.83486 14.7992 6.12404C14.9022 6.63141 15.3974 6.95922 15.9045 6.85622C16.4119 6.75316 16.7397 6.25829 16.6367 5.75086C16.4667 4.91361 15.8821 4.24237 15.1245 3.93387V3.74999C15.1245 3.23225 14.7047 2.8125 14.187 2.8125C13.6692 2.8125 13.2495 3.23225 13.2495 3.74999V3.93306C12.3343 4.30474 11.687 5.20292 11.687 6.24998C11.687 7.62847 12.8085 8.74996 14.187 8.74996Z" fill="#FF0000"/>
</svg>
